<svg width="17" height="17" viewBox="0 0 17 17" fill="none" xmlns="http://www.w3.org/2000/svg">
<path d="M4.51562 6.97266C3.69172 6.97266 3.02148 7.64289 3.02148 8.4668V12.5176C3.02148 13.3415 3.69172 14.0117 4.51562 14.0117C5.33953 14.0117 6.00977 13.3415 6.00977 12.5176V8.4668C6.00977 7.64289 5.33953 6.97266 4.51562 6.97266Z" fill="#828CAE"/>
<path d="M2.02539 8.46679C2.02539 8.32312 2.04435 8.18433 2.06782 8.0473C1.46758 8.24131 1.0293 8.79885 1.0293 9.46288V11.5215C1.0293 12.1855 1.46758 12.7431 2.06782 12.9371C2.04435 12.8 2.02539 12.6612 2.02539 12.5176V8.46679Z" fill="#828CAE"/>
<path d="M12.4844 6.97266C11.6605 6.97266 10.9902 7.64289 10.9902 8.4668V12.5176C10.9902 13.3415 11.6605 14.0117 12.4844 14.0117C12.6341 14.0117 12.776 13.9829 12.9124 13.9417C12.727 14.5563 12.1625 15.0078 11.4883 15.0078H9.9024C9.69611 14.4293 9.14846 14.0117 8.5 14.0117C7.6761 14.0117 7.00586 14.682 7.00586 15.5059C7.00586 16.3298 7.6761 17 8.5 17C9.14846 17 9.69611 16.5824 9.9024 16.0039H11.4883C12.8613 16.0039 13.9785 14.8867 13.9785 13.5137V12.5176V8.4668C13.9785 7.64289 13.3083 6.97266 12.4844 6.97266Z" fill="#828CAE"/>
<path d="M14.9322 8.0473C14.9557 8.18433 14.9746 8.32312 14.9746 8.46679V12.5176C14.9746 12.6612 14.9557 12.8 14.9322 12.9371C15.5324 12.7431 15.9707 12.1855 15.9707 11.5215V9.46288C15.9707 8.79885 15.5324 8.24131 14.9322 8.0473Z" fill="#828CAE"/>
<path d="M8.5 0C4.38042 0 1.0293 3.35113 1.0293 7.4707V7.48342C1.32603 7.25877 1.66935 7.09438 2.0482 7.02077C2.28099 3.66068 5.08187 0.996094 8.5 0.996094C11.9181 0.996094 14.719 3.66068 14.9518 7.02073C15.3306 7.09435 15.6739 7.25877 15.9707 7.48339V7.4707C15.9707 3.35113 12.6196 0 8.5 0Z" fill="#828CAE"/>
</svg>
