<svg width="18" height="22" viewBox="0 0 18 22" fill="none" xmlns="http://www.w3.org/2000/svg">
<path d="M14.847 5.02815C14.0424 2.87519 11.9363 2.6455 9.47124 3.07984L8.64982 0.0145305L6.78403 0.514672L7.58385 3.49918C7.09337 3.63067 6.59457 3.7747 6.0991 3.91812L5.29437 0.913751L3.42952 1.41338L4.24995 4.47801C3.8482 4.5945 3.4535 4.7083 3.06674 4.8122L3.06395 4.80276L0.490261 5.49144L1.02472 7.48408C1.02472 7.48408 2.39553 7.08862 2.37943 7.12013C3.13526 6.91785 3.4988 7.2907 3.67179 7.65014L4.60766 11.1421C4.65989 11.1285 4.7285 11.1124 4.80836 11.1023C4.74623 11.119 4.67958 11.1365 4.61133 11.1554L5.92168 16.0475C5.95224 16.2942 5.91405 16.7109 5.38627 16.8533C5.41581 16.8681 4.02985 17.2164 4.02985 17.2164L4.2562 19.544L6.6843 18.8933C7.1363 18.7728 7.58296 18.6613 8.02017 18.5471L8.85167 21.6472L10.7156 21.148L9.8936 18.0806C10.4082 17.9541 10.9045 17.8254 11.3879 17.6954L12.2053 20.749L14.071 20.2488L13.2424 17.154C16.331 16.1335 18.3148 14.7549 17.7981 11.7361C17.3826 9.30521 15.9833 8.5458 14.088 8.59533C15.0222 7.75462 15.4385 6.60282 14.847 5.02815V5.02815ZM14.0129 12.3566C14.6347 14.6732 10.5971 15.4726 9.33286 15.8126L8.23269 11.7049C9.49768 11.3662 13.3655 9.94008 14.0129 12.3566ZM11.5922 6.79386C12.1564 8.90185 8.7821 9.54236 7.72882 9.82467L6.7307 6.09923C7.78397 5.81692 11.0029 4.59541 11.5922 6.79386V6.79386Z" fill="#7781A2"/>
</svg>
