<svg width="34" height="26" viewBox="0 0 34 26" fill="none" xmlns="http://www.w3.org/2000/svg">
<g>
<path fill-rule="evenodd" clip-rule="evenodd" d="M13.96 9.45191L13.9783 13.2264H19.3666C20.3236 13.2264 21.0992 12.4443 21.0944 11.4825L21.093 11.1958C21.0884 10.2338 20.3053 9.45191 19.3482 9.45191H14.6976H13.96ZM21.7786 18.9638L21.7771 18.6608C21.772 17.5879 20.8995 16.7168 19.8322 16.7168H19.3838H13.9955L14.0159 20.9079H19.8524C20.9198 20.9079 21.7838 20.0353 21.7786 18.9638ZM23.4886 14.6793C24.5609 15.6723 25.2408 17.0875 25.2484 18.6608L25.2499 18.9638C25.2645 21.9591 22.8506 24.3969 19.8692 24.3969H19.7373L19.7449 26H16.2735L16.2657 24.3969H14.8429L14.8507 26H11.3793L11.3715 24.3969H10.5611H8.83951L8.82256 20.9079H10.5442L10.5239 16.7168L10.5068 13.2264L10.4886 9.45189H8.76694L8.75 5.9616H11.282L11.2725 4H14.7439L14.7534 5.9616H16.1763L16.1667 4H19.6383L19.6478 5.97803C22.3731 6.14423 24.5513 8.41715 24.5648 11.1958L24.5661 11.4825C24.572 12.6866 24.1667 13.7932 23.4886 14.6793Z" fill="url(#paint0_linear)"/>
<path fill-rule="evenodd" clip-rule="evenodd" d="M13.96 9.45191L13.9783 13.2264H19.3666C20.3236 13.2264 21.0992 12.4443 21.0944 11.4825L21.093 11.1958C21.0884 10.2338 20.3053 9.45191 19.3482 9.45191H14.6976H13.96ZM21.7786 18.9638L21.7771 18.6608C21.772 17.5879 20.8995 16.7168 19.8322 16.7168H19.3838H13.9955L14.0159 20.9079H19.8524C20.9198 20.9079 21.7838 20.0353 21.7786 18.9638ZM23.4886 14.6793C24.5609 15.6723 25.2408 17.0875 25.2484 18.6608L25.2499 18.9638C25.2645 21.9591 22.8506 24.3969 19.8692 24.3969H19.7373L19.7449 26H16.2735L16.2657 24.3969H14.8429L14.8507 26H11.3793L11.3715 24.3969H10.5611H8.83951L8.82256 20.9079H10.5442L10.5239 16.7168L10.5068 13.2264L10.4886 9.45189H8.76694L8.75 5.9616H11.282L11.2725 4H14.7439L14.7534 5.9616H16.1763L16.1667 4H19.6383L19.6478 5.97803C22.3731 6.14423 24.5513 8.41715 24.5648 11.1958L24.5661 11.4825C24.572 12.6866 24.1667 13.7932 23.4886 14.6793Z" fill="#7781A2"/>
</g>
<!-- <defs> -->
<!-- <filter id="filter0_d" x="0.75" y="0" width="32.5" height="38" filterUnits="userSpaceOnUse" color-interpolation-filters="sRGB">
<feFlood flood-opacity="0" result="BackgroundImageFix"/>
<feColorMatrix in="SourceAlpha" type="matrix" values="0 0 0 0 0 0 0 0 0 0 0 0 0 0 0 0 0 0 127 0"/>
<feOffset dy="4"/>
<feGaussianBlur stdDeviation="4"/>
<feColorMatrix type="matrix" values="0 0 0 0 0 0 0 0 0 0 0 0 0 0 0 0 0 0 0.0744452 0"/>
<feBlend mode="normal" in2="BackgroundImageFix" result="effect1_dropShadow"/>
<feBlend mode="normal" in="SourceGraphic" in2="effect1_dropShadow" result="shape"/>
</filter> -->
<!-- <linearGradient id="paint0_linear" x1="0.5" y1="15" x2="21.62" y2="30.84" gradientUnits="userSpaceOnUse">
<stop stop-color="#FFCB54"/>
<stop offset="0.192353" stop-color="#FFCB54"/>
<stop offset="0.686424" stop-color="#F7931A"/>
<stop offset="0.817657" stop-color="#F7931A"/>
<stop offset="1" stop-color="#F7931A"/>
</linearGradient> -->
<!-- </defs> -->
</svg>
