<svg width="28" height="22" viewBox="0 0 28 22" fill="none" xmlns="http://www.w3.org/2000/svg">
<path d="M17.7513 0H7.88132L7.06403 4.57013L15.9708 4.58264C20.3574 4.58264 21.6543 6.17551 21.6167 8.81501C21.5959 10.1702 21.0121 12.4594 20.7577 13.2017C20.0822 15.1782 18.6937 17.4382 13.4897 17.4299L4.83317 17.4257L4.01172 22H13.8567C17.3301 22 18.8063 21.5955 20.3699 20.8741C23.8392 19.2729 25.9033 15.8495 26.7289 11.3836C27.959 4.73275 26.4245 0 17.7513 0" fill="#7781A2"/>
<path d="M3.62358 8.7066C1.03829 8.7066 0.667172 10.3912 0.425322 11.4087C0.104246 12.743 0 13.2809 0 13.2809H10.1035C12.6888 13.2809 13.0599 11.5963 13.3017 10.5789C13.6228 9.24451 13.7271 8.7066 13.7271 8.7066H3.62358Z" fill="#7781A2"/>
</svg>
